<svg version="1.2" xmlns="http://www.w3.org/2000/svg" viewBox="0 0 16 144" width="16" height="144">
	<title>m22</title>
	<style>
		.s0 { opacity: 1;fill: #a36288 } 
		.s1 { fill: #739f65 } 
		.s2 { fill: #78a2ce } 
	</style>
	<g id="a">
		<path id="a2" class="s0" d="m5.9 32.5c0 5.1-0.1 5.5-2.4 5.8l-2.5 0.2 6.9 8 7-8c-4.8-0.5-5-0.9-5-6 0-4.8-0.2-5.5-2-5.5-1.7 0-2 0.7-2 5.5zm129.1 46.5"/>
	</g>
	<g id="g">
		<path id="g2" fill-rule="evenodd" class="s1" d="m5.4 18.1l-2.4 1-2 5.1 2.2 5.1 5.1 2.1c3.4-1.4 4.5-2 4.7-2.2 0.2-0.2 0.8-1.3 1.3-2.6l1-2.3-2.1-5.3c-3.8-1.6-5-2-5.2-2-0.1 0-1.3 0.5-2.6 1.1z"/>
		<path id="g1" fill-rule="evenodd" class="s1" d="m5.4 2.1l-2.4 1-2 5.1 2.2 5.1 5.1 2.1c3.4-1.4 4.5-2 4.7-2.2 0.2-0.2 0.8-1.3 1.3-2.6l1-2.3-2.1-5.3c-3.8-1.6-5-2-5.2-2-0.1 0-1.3 0.5-2.6 1.1z"/>
	</g>
	<g id="b">
		<path id="b5" fill-rule="evenodd" class="s2" d="m5.4 66.1l-2.4 1-2 5.1 2.2 5.1 5.1 2.1c3.4-1.4 4.5-2 4.7-2.2 0.2-0.2 0.8-1.3 1.3-2.6l1-2.3-2.1-5.3c-3.8-1.6-5-2-5.2-2-0.1 0-1.3 0.5-2.6 1.1z"/>
		<path id="b4" fill-rule="evenodd" class="s2" d="m5.4 50.1l-2.4 1-2 5.1 2.2 5.1 5.1 2.1c3.4-1.4 4.5-2 4.7-2.2 0.2-0.2 0.8-1.3 1.3-2.6l1-2.3-2.1-5.3c-3.8-1.6-5-2-5.2-2-0.1 0-1.3 0.5-2.6 1.1z"/>
	</g>
	<g id="p">
	</g>
</svg>