<svg version="1.2" xmlns="http://www.w3.org/2000/svg" viewBox="0 0 16 144" width="16" height="144">
	<title>m38</title>
	<style>
		.s0 { opacity: 1;fill: #a36288 } 
		.s1 { fill: #f3c65d } 
		.s2 { fill: #739f65 } 
		.s3 { fill: #fb7b93 } 
	</style>
	<g id="a">
		<path id="a1" class="s0" d="m6 16.5c0 5.1-0.2 5.5-2.5 5.8l-2.4 0.2 6.9 8 6.9-8c-4.7-0.5-4.9-0.9-4.9-6 0-4.8-0.2-5.5-2-5.5-1.8 0-2 0.7-2 5.5zm129 59.5"/>
	</g>
	<g id="y">
		<path id="y6" fill-rule="evenodd" class="s1" d="m5.4 82.1l-2.4 1-2 5.1 2.2 5.1 5.1 2.1c3.4-1.4 4.5-2 4.7-2.2 0.2-0.2 0.8-1.3 1.3-2.6l1-2.3-2.1-5.3c-3.8-1.6-5-2-5.2-2-0.1 0-1.3 0.5-2.6 1.1z"/>
		<path id="y5" fill-rule="evenodd" class="s1" d="m5.4 66.1l-2.4 1-2 5.1 2.2 5.1 5.1 2.1c3.4-1.4 4.5-2 4.7-2.2 0.2-0.2 0.8-1.3 1.3-2.6l1-2.3-2.1-5.3c-3.8-1.6-5-2-5.2-2-0.1 0-1.3 0.5-2.6 1.1z"/>
	</g>
	<g id="g">
		<path id="g4" fill-rule="evenodd" class="s2" d="m5.4 50.1l-2.4 1-2 5.1 2.2 5.1 5.1 2.1c3.4-1.4 4.5-2 4.7-2.2 0.2-0.2 0.8-1.3 1.3-2.6l1-2.3-2.1-5.3c-3.8-1.6-5-2-5.2-2-0.1 0-1.3 0.5-2.6 1.1z"/>
		<path id="g3" fill-rule="evenodd" class="s2" d="m5.4 34.1l-2.4 1-2 5.1 2.2 5.1 5.1 2.1c3.4-1.4 4.5-2 4.7-2.2 0.2-0.2 0.8-1.3 1.3-2.6l1-2.3-2.1-5.3c-3.8-1.6-5-2-5.2-2-0.1 0-1.3 0.5-2.6 1.1z"/>
	</g>
	<g id="b">
	</g>
	<g id="p">
		<path id="p1" fill-rule="evenodd" class="s3" d="m5.4 2.1l-2.4 1-2 5.1 2.2 5.1 5.1 2.1c3.4-1.4 4.5-2 4.7-2.2 0.2-0.2 0.8-1.3 1.3-2.6l1-2.3-2.1-5.3c-3.8-1.6-5-2-5.2-2-0.1 0-1.3 0.5-2.6 1.1z"/>
	</g>
</svg>