<svg version="1.2" xmlns="http://www.w3.org/2000/svg" viewBox="0 0 16 144" width="16" height="144">
	<title>m3</title>
	<style>
		.s0 { fill: #f3c65d } 
	</style>
	<g id="y">
		<path id="y3" fill-rule="evenodd" class="s0" d="m5.4 34.1l-2.4 1-2 5.1 2.2 5.1 5.1 2.1c3.4-1.4 4.5-2 4.7-2.2 0.2-0.2 0.8-1.3 1.3-2.6l1-2.3-2.1-5.3c-3.8-1.6-5-2-5.2-2-0.1 0-1.3 0.5-2.6 1.1z"/>
		<path id="y2" fill-rule="evenodd" class="s0" d="m5.4 18.1l-2.4 1-2 5.1 2.2 5.1 5.1 2.1c3.4-1.4 4.5-2 4.7-2.2 0.2-0.2 0.8-1.3 1.3-2.6l1-2.3-2.1-5.3c-3.8-1.6-5-2-5.2-2-0.1 0-1.3 0.5-2.6 1.1z"/>
		<path id="y1" fill-rule="evenodd" class="s0" d="m5.4 2.1l-2.4 1-2 5.1 2.2 5.1 5.1 2.1c3.4-1.4 4.5-2 4.7-2.2 0.2-0.2 0.8-1.3 1.3-2.6l1-2.3-2.1-5.3c-3.8-1.6-5-2-5.2-2-0.1 0-1.3 0.5-2.6 1.1z"/>
	</g>
</svg>